#N canvas 388 212 667 468 10;
#X obj -11 359 soundfiler;
#N canvas 0 22 450 278 (subpatch) 0;
#X array VALUES 32 float 2;
#X coords 0 1 32 -1 200 140 1 0 0;
#X restore 330 100 graph;
#X obj 42 145 until;
#X obj 42 169 counter;
#X obj 42 124 t f b;
#X obj 61 301 tabwrite VALUES;
#X obj 61 220 random 100;
#X obj 61 248 / 50;
#X obj 61 270 - 1;
#X msg 42 102 32;
#X obj 167 301 print;
#X obj 42 -10 loadbang;
#X obj 42 190 t f b f;
#X msg -10 278 \; pd quit;
#X msg 95 100 \; pd dsp 1;
#X obj 42 54 del 100;
#X obj -9 248 del 10000;
#X msg 167 267 END;
#X obj -3 219 moses 31;
#X msg -11 326 write -wave -bytes 2 -rate 44100 ./noise32values.wav
VALUES;
#X connect 2 0 3 0;
#X connect 3 0 12 0;
#X connect 4 0 2 0;
#X connect 4 1 3 2;
#X connect 6 0 7 0;
#X connect 7 0 8 0;
#X connect 8 0 5 0;
#X connect 8 0 10 0;
#X connect 9 0 4 0;
#X connect 11 0 14 0;
#X connect 11 0 15 0;
#X connect 12 0 18 0;
#X connect 12 1 6 0;
#X connect 12 2 5 1;
#X connect 15 0 9 0;
#X connect 16 0 13 0;
#X connect 17 0 10 0;
#X connect 18 1 19 0;
#X connect 18 1 16 0;
#X connect 18 1 17 0;
#X connect 19 0 0 0;
